<svg xmlns="http://www.w3.org/2000/svg" xmlns:xlink="http://www.w3.org/1999/xlink" width="1024" zoomAndPan="magnify" viewBox="0 0 768 767.999994" height="1024" preserveAspectRatio="xMidYMid meet" version="1.0"><defs><clipPath id="af5b70d9b1"><path d="M 20 34.46875 L 733 34.46875 L 733 640 L 20 640 Z M 20 34.46875 " clip-rule="nonzero"/></clipPath></defs><g clip-path="url(#af5b70d9b1)"><path fill="#933ea0" d="M 35.089844 482.230469 C 85.367188 362.402344 233.414062 457.335938 354.027344 509.191406 C 574.542969 603.980469 767.996094 497.683594 725.558594 235.878906 C 685.441406 385.179688 505.59375 392.933594 379.105469 368.507812 C 220.457031 337.882812 63.273438 264.082031 35.089844 482.230469 M 349.148438 543.855469 C 220.390625 455.296875 0.00390625 356.949219 22.523438 639.226562 C 76.417969 438.644531 331 733.464844 349.148438 543.855469 Z M 35.089844 381.554688 C 99.859375 227.195312 326.832031 328.492188 448.472656 335.773438 C 659.433594 348.34375 761.679688 257.332031 725.558594 34.527344 C 697.90625 137.449219 606.429688 179.566406 468.722656 177.640625 C 284.769531 175.058594 68.625 122.003906 35.089844 381.554688 Z M 35.089844 381.554688 " fill-opacity="1" fill-rule="evenodd"/></g></svg>