<?xml version="1.0" encoding="UTF-8"?>
<svg version="1.1" xmlns="http://www.w3.org/2000/svg" width="1024" height="1024">
<path d="M0 0 C2.72763565 2.72763565 2.55881275 4.71005618 3.03515625 8.51953125 C3.11873886 9.17394699 3.20232147 9.82836273 3.28843689 10.50260925 C3.46462087 11.89503569 3.63667068 13.28799043 3.80493164 14.68139648 C4.0570409 16.76733174 4.32120513 18.85143076 4.58789062 20.93554688 C11.82764008 78.28200594 8.92112513 142.38686581 -27.42675781 190.01318359 C-31.62786982 195.31868476 -36.20430029 200.23121407 -41 205 C-41.80824219 205.80824219 -42.61648438 206.61648438 -43.44921875 207.44921875 C-49.79519483 213.4595399 -56.86556038 218.22228446 -64.23046875 222.87597656 C-65.75057013 223.84155972 -67.25225754 224.83602421 -68.75 225.8359375 C-106.73762793 249.91738021 -156.63314604 254.47414479 -200.5 254.3125 C-201.53871246 254.31067719 -202.57742493 254.30885437 -203.64761353 254.30697632 C-225.71991625 254.24218131 -247.12722414 252.66576564 -268.90234375 248.8828125 C-270.12692291 248.67075668 -271.35150208 248.45870087 -272.6131897 248.24021912 C-283.16627347 246.39099841 -293.67471392 244.32593805 -304.1796875 242.22265625 C-305.01676302 242.05513918 -305.85383854 241.88762211 -306.71627998 241.71502876 C-314.49400171 240.15706425 -322.27020221 238.59161567 -330.04394531 237.01391602 C-348.9802691 233.17460347 -367.914661 229.54275148 -387.015625 226.61328125 C-387.80709805 226.49134966 -388.59857109 226.36941807 -389.41402817 226.24379158 C-426.80481566 220.52497171 -466.05148476 216.80150095 -503 227 C-503.6487207 227.17901855 -504.29744141 227.35803711 -504.96582031 227.54248047 C-519.59457536 231.71946325 -533.18668642 238.37638162 -545 248 C-545.82757812 248.66386719 -546.65515625 249.32773437 -547.5078125 250.01171875 C-560.0641295 260.65900323 -570.76337978 275.29013935 -576 291 C-576.66 291 -577.32 291 -578 291 C-575.80778654 273.96410063 -572.88800568 257.47741488 -568 241 C-567.78730469 240.27893066 -567.57460938 239.55786133 -567.35546875 238.81494141 C-560.9085712 217.36860883 -550.80490305 196.65659024 -537 179 C-536.56961426 178.44860352 -536.13922852 177.89720703 -535.69580078 177.32910156 C-505.7625089 139.48241068 -460.38074406 122.77152157 -413.5625 117.1875 C-409.71153059 116.75074678 -405.85829694 116.3655138 -402 116 C-401.11715332 115.91307892 -400.23430664 115.82615784 -399.32470703 115.73660278 C-391.4168827 115.00986235 -383.55954473 114.80818014 -375.62109375 114.76171875 C-374.58818364 114.75460845 -374.58818364 114.75460845 -373.53440666 114.74735451 C-368.16878109 114.71132979 -362.80322964 114.69685969 -357.4375 114.6875 C-356.63642067 114.6854657 -355.83534134 114.6834314 -355.00998688 114.68133545 C-321.77607753 114.60273235 -288.64524029 115.88799115 -255.45874023 117.5769043 C-238.89159825 118.41400797 -222.3574445 119.18848646 -205.765625 119.17578125 C-204.48299774 119.17501587 -203.20037048 119.17425049 -201.87887573 119.17346191 C-152.63300901 118.85581758 -96.65221351 112.32986463 -56 82 C-55.21882812 81.42765625 -54.43765625 80.8553125 -53.6328125 80.265625 C-47.78371127 75.8535002 -42.36712768 70.98055064 -37 66 C-36.10861328 65.20722656 -36.10861328 65.20722656 -35.19921875 64.3984375 C-17.36223509 47.79599447 -6.13062586 23.19957891 0 0 Z " fill="#933EA0" transform="translate(797,219)"/>
<path d="M0 0 C2.41696736 2.41696736 2.3998233 3.43840942 2.81640625 6.76953125 C2.94080078 7.74212891 3.06519531 8.71472656 3.19335938 9.71679688 C3.37608398 11.24916992 3.37608398 11.24916992 3.5625 12.8125 C3.68818359 13.79154297 3.81386719 14.77058594 3.94335938 15.77929688 C5.66660642 29.59233995 6.24036184 43.28258212 6.25 57.1875 C6.25101212 58.50800858 6.25101212 58.50800858 6.25204468 59.85519409 C6.18687143 113.65114508 -8.35820656 167.83777837 -47 207 C-83.03438108 242.61659116 -132.33275989 258.55456444 -182.375 258.3125 C-183.2034845 258.31001251 -184.03196899 258.30752502 -184.88555908 258.30496216 C-232.98024325 258.08306472 -278.44931647 244.7547657 -322 225 C-323.00809723 224.54400421 -323.00809723 224.54400421 -324.03656006 224.07879639 C-338.57660464 217.50042091 -353.06642339 210.81322732 -367.49609375 203.99609375 C-446.70945651 163.91244216 -446.70945651 163.91244216 -532.5625 162.8125 C-534.38842489 163.50736586 -536.20235926 164.23493266 -538 165 C-539.2684375 165.52207031 -539.2684375 165.52207031 -540.5625 166.0546875 C-558.5857185 174.22145838 -568.56712146 189.96935423 -577 207 C-582.53076203 195.93847595 -571.54492634 169.19054148 -567.96630859 157.88916016 C-562.40642687 141.26570379 -554.79249316 125.1255576 -543 112 C-542.56703613 111.51789063 -542.13407227 111.03578125 -541.68798828 110.5390625 C-524.78143921 91.99070097 -500.92376065 81.7396572 -476 80 C-459.36748998 79.3119065 -442.7720438 79.49128747 -426.25 81.625 C-425.15606934 81.76510498 -424.06213867 81.90520996 -422.93505859 82.04956055 C-402.00810892 85.0453148 -381.3139319 89.86874215 -360.70703125 94.53125 C-359.82114948 94.73158215 -358.93526772 94.93191429 -358.02254105 95.13831711 C-349.78243448 97.0030115 -341.54383962 98.87429363 -333.30834961 100.75927734 C-314.54671142 105.04984392 -295.7996682 109.2379903 -276.82421875 112.48046875 C-275.77908584 112.66015701 -275.77908584 112.66015701 -274.71283913 112.84347534 C-254.01938306 116.36861299 -232.98721085 118.44987652 -212 119 C-210.8548291 119.03287109 -210.8548291 119.03287109 -209.68652344 119.06640625 C-184.39882443 119.68848987 -158.81095012 117.95413452 -134 113 C-132.98421875 112.79922852 -131.9684375 112.59845703 -130.921875 112.39160156 C-95.8671572 105.2463403 -63.82515407 90.90414287 -38 66 C-37.20980469 65.27296875 -36.41960938 64.5459375 -35.60546875 63.796875 C-17.52917912 46.70196012 -7.37352274 23.29165712 0 0 Z " fill="#933EA0" transform="translate(797,388)"/>
<path d="M0 0 C37.36135184 -0.79691717 73.93452733 12.30787641 107.23828125 28.12109375 C108.2840332 28.61448242 109.32978516 29.10787109 110.40722656 29.61621094 C127.63465174 37.8085295 143.99074358 47.16397146 160.23828125 57.12109375 C161.07697754 57.63365723 161.91567383 58.1462207 162.77978516 58.67431641 C186.05840446 72.94121696 186.05840446 72.94121696 190.23828125 77.12109375 C191.03158878 92.64347775 184.90593741 109.61386539 175.11328125 121.49609375 C166.68795181 130.30374907 155.648476 134.007673 143.67578125 134.37109375 C141.8621436 134.31799804 140.0493773 134.23078328 138.23828125 134.12109375 C137.08457031 134.05277344 135.93085938 133.98445312 134.7421875 133.9140625 C110.28864272 131.96344003 86.63165439 122.39965042 63.56445312 114.5859375 C10.2533028 95.26751695 10.2533028 95.26751695 -44.20654297 102.94921875 C-64.70098255 113.0806641 -73.92247382 131.30557701 -81.00317383 152.22680664 C-81.76171875 154.12109375 -81.76171875 154.12109375 -83.76171875 157.12109375 C-94.69358368 124.32549897 -84.81809141 73.31529583 -69.94921875 42.68359375 C-66.4263156 35.7354807 -62.05151543 29.85411565 -56.76171875 24.12109375 C-56.18808594 23.46753906 -55.61445313 22.81398438 -55.0234375 22.140625 C-41.28925316 7.29197224 -19.68119317 0.86296604 0 0 Z " fill="#933EA0" transform="translate(292.76171875,568.87890625)"/>
</svg>
